PathFileType	4	(X/Y/Z)	Patient4_TMGait_0pt5_01_left_08.trc.trc
DataRate	CameraRate	NumFrames	NumMarkers	Units	OrigDataRate	OrigDataStartFrame	OrigNumFrames
75.675675675676	75.675675675676	5	33	mm	75.675675675676	124	       141
Frame#	Time	L.ASIS			Sacral			L.Shoulder			Chest			R.Shoulder			Neck			R.ASIS			R.Thigh.Superior			R.Thigh.Lateral			R.Thigh.Inferior			R.Patella			L.Thigh.Superior			L.Thigh.Lateral			L.Thigh.Inferior			L.Patella			L.Shank.Superior			L.Shank.Lateral			L.Shank.Inferior			R.Shank.Superior			R.Shank.Lateral			R.Shank.Inferior			R.Heel			R.Midfoot.Superior			R.Midfoot.Lateral			R.Toe			L.Heel			L.Midfoot.Lateral			L.Midfoot.Superior			L.Toe			L.Elbow			L.Wrist			R.Elbow			R.Wrist			
		X1	Y1	Z1	X2	Y2	Z2	X3	Y3	Z3	X4	Y4	Z4	X5	Y5	Z5	X6	Y6	Z6	X7	Y7	Z7	X8	Y8	Z8	X9	Y9	Z9	X10	Y10	Z10	X11	Y11	Z11	X12	Y12	Z12	X13	Y13	Z13	X14	Y14	Z14	X15	Y15	Z15	X16	Y16	Z16	X17	Y17	Z17	X18	Y18	Z18	X19	Y19	Z19	X20	Y20	Z20	X21	Y21	Z21	X22	Y22	Z22	X23	Y23	Z23	X24	Y24	Z24	X25	Y25	Z25	X26	Y26	Z26	X27	Y27	Z27	X28	Y28	Z28	X29	Y29	Z29	X30	Y30	Z30	X31	Y31	Z31	X32	Y32	Z32	X33	Y33	Z33	

124	12.395357142857	700.473487221305	956.920060677259	343.143811918104	504.489880493146	998.714739509000	522.632021569040	645.584225789901	1437.979342600031	342.207877203566	768.166525474224	1360.562027529469	485.845788595072	704.097093025421	1423.518427314802	673.097750577125	661.433331518316	1490.491530147091	495.834902083339	740.112847197925	934.242402403253	615.851247325519	737.801074653274	721.735001302062	584.696963554729	635.614070206453	627.553439807865	648.726718051113	691.049678375945	563.109225080995	565.396360000751	671.049728383992	478.096641306239	567.720030631959	776.188948148735	765.517582035138	367.668635202246	713.733092807721	636.904820076420	301.380048551923	817.634807119252	576.453128258769	357.857905881236	841.566893482762	510.538341772591	357.270092549197	824.991597361054	438.105708643821	349.678408899284	755.421992549044	308.025047205481	304.993900150183	842.319565506155	209.522552903127	360.035205206608	633.271378121662	394.599558246738	574.124815929524	552.816709459540	297.970811184028	634.881712509023	581.568900631539	200.898557638368	568.195868909470	431.923174206365	42.605076825505	534.406629138320	603.415544157772	95.791816013207	572.074278698332	514.553468819777	35.560576517073	609.231025599555	722.746308430093	41.565416652820	601.404390734456	752.524204081298	38.802299077800	404.070051052774	825.040331559985	38.219656634914	322.321933106115	902.350828124137	107.981304741521	341.669291781134	1032.664817704487	67.351426565713	313.481182020647	523.166332341068	1109.910525367973	225.911152763239	522.691424943121	849.044835553891	210.601892656149	796.124740831594	1084.465732398720	760.490406989217	1037.986201078246	1086.880671627147	685.218836133480	
125	12.408571428571	702.249191565929	955.849777482280	341.659891678275	505.737311635999	997.726137767511	520.601913198819	644.807575446530	1436.782434745562	339.731097295817	767.918179511440	1360.323929023251	483.409581769957	703.697171275622	1423.303993719135	670.639747378451	660.590065427158	1489.716770542333	493.232184736183	741.387039424666	933.368165819707	614.325710492650	738.108586028040	720.605023615227	583.624339253939	634.971944487406	627.007829475421	647.494379475110	690.144408050399	562.069898564393	564.373721181721	669.277476476162	476.796983312564	566.506719800025	778.082793321173	763.937481327358	367.170972638380	714.882211486900	635.441546113112	301.257532875653	818.448223184803	575.025576032085	358.359023031239	841.390907043447	508.215036266508	358.298822387394	824.184403056086	435.425917588876	350.545466927277	752.807202638870	306.324604188939	305.890394905461	837.631392525054	206.583059775506	361.657909450899	630.575184825268	393.752610420287	573.186604767976	549.123954122421	298.181641873745	634.428544402777	576.495269981240	200.603451951157	567.839664720138	425.358008335565	43.053638145512	534.569563046012	596.998453831712	95.779296247103	572.125631189156	508.014777438565	35.633578034250	609.293882267738	716.222841642954	41.135130719605	601.435704068060	744.182684266107	38.115178709336	405.339019802009	816.708316493837	36.862375957325	323.510958082949	895.705938064785	104.457239766579	343.923673310162	1025.292385262081	60.931396111652	315.233114690094	522.466746308684	1108.236499853787	225.079082449841	522.377231397874	847.236111819302	210.678741539770	799.690038906209	1085.422464287063	757.997597117605	1040.863139667776	1092.098988573914	681.213897843859	
126	12.421785714286	703.969908032486	955.016571890639	340.063585885508	506.917964187412	996.977882803425	518.419317702990	644.270552890794	1435.722864771477	337.185737509556	767.852385671872	1360.175243531322	480.927858799901	703.483155386736	1423.247713667082	668.112636675900	659.991012730911	1489.096296053637	490.539377292448	742.575239407973	932.552486272028	612.664596865440	738.468345385480	719.603537671287	582.422485848620	634.474253595621	626.545898644378	646.077258319894	689.512698074736	561.121366527925	563.200465807882	667.836762946767	475.522044626540	565.193563364252	779.890086719856	762.665526486630	366.749491004943	716.305493292980	634.416274838657	300.892889989586	819.424836079222	573.983134354863	358.848690389215	841.322565569013	506.239734206112	359.240800263742	823.528372311166	433.151759767500	351.225432502131	750.561277141195	305.054846507313	306.349439811227	833.155242368402	204.107447149435	362.968815852342	628.146400020983	392.938173336881	572.155895526576	545.600317455743	298.536444067717	633.905457046414	571.567515451270	200.414413407334	567.480623034161	418.839766015690	43.742389543045	534.771681111099	590.678423581164	95.819103236306	572.208783184422	501.523878535683	35.805904932441	609.372715304518	709.755075209154	40.669811811587	601.476354164250	736.195587358327	37.617050212619	406.179600134792	808.789479729093	35.898698924401	324.332166633474	889.167432951549	101.625496546476	345.810039142952	1018.156344616823	55.697627354179	316.740972490987	522.433238128267	1106.497478295892	224.113156562020	522.847803163677	845.370921696770	210.525729847576	802.914398790349	1086.425127812072	755.639836468690	1043.504524892481	1096.478281335150	677.645827575789	
127	12.435000000000	705.562144680741	954.472754289950	338.330798979651	508.003026789401	996.502932385514	516.108082337053	643.990414779694	1434.857064769224	334.603283736275	767.973129527923	1360.124435374106	478.419843754279	703.490282606365	1423.370271895790	665.536540538691	659.666694383938	1488.666394294610	487.793219232446	743.626180600478	931.852428984764	610.860050669548	738.850302101684	718.785895637900	581.067354918673	634.137556229823	626.198365501580	644.477738671798	689.180351475866	560.301107609445	561.879086342690	666.776109419385	474.292996201741	563.806290894999	781.589993582802	761.822373042688	366.355711209730	718.029317772812	633.883829698163	300.271051209003	820.591062668139	573.385814368417	359.257055029012	841.409391953262	504.682435124585	360.009747159316	823.050578057501	431.339719986004	351.689105541782	748.703069486558	304.264950708346	306.364847416774	828.920991825054	202.155137147334	363.943612981501	626.017701590165	392.176119057209	571.049262573308	542.271557710864	299.067905433742	633.316090646321	566.814458675712	200.363815108817	567.132061642675	412.383741732259	44.740169269471	535.017109543314	584.483850860560	95.928761671150	572.333998660269	495.090893690674	36.116857820005	609.472508128101	703.348044451142	40.173771033256	601.524195832411	728.672413512599	37.312800197916	406.645727466145	801.365406542103	35.308040740056	324.818887833608	882.790618219642	99.535791728821	347.265841266644	1011.323208558931	51.752909362544	317.922526981889	523.082301149481	1104.769481694005	222.993024710675	524.133993408763	843.526098369482	210.121894260296	805.757521686217	1087.459237699605	753.404814959577	1045.919637663809	1099.934925819818	674.518293831666	
128	12.448214285714	706.981144603183	954.243999740479	336.433813537611	508.974082142081	996.311288409556	513.677068736177	643.970769144516	1434.226303644873	332.009177651295	768.271940277577	1360.171895505954	475.901888783671	703.731261690684	1423.674440802831	662.929742149403	659.625657841726	1488.446479534548	485.029184585806	744.506171208857	931.318575821407	608.905489187463	739.233946344747	718.195351228435	579.546301286328	633.976732991548	625.989252225581	642.711846454172	689.171413217449	559.639342313482	560.430796336647	666.141074250220	473.123611872324	562.390662128360	783.175193853948	761.473237460778	365.928460776052	720.035151444694	633.838308332457	299.393733999986	821.924025003929	573.216811580177	359.514996798522	841.645412934455	503.542436612513	360.542168068944	822.720759465091	429.977483786755	351.935229982024	747.167157270158	303.936668479119	305.981987035522	824.884634512137	200.713951145578	364.601661591655	624.216178078623	391.484393423133	569.895432910685	539.159418945683	299.803523231230	632.669598320817	562.260746167490	200.482024955785	566.811347395688	406.005423269689	46.113952909281	535.307047418733	578.439967933303	96.124877298242	572.511561929661	488.722533656704	36.607916358611	609.597614296109	696.997975533660	39.654859089645	601.575927160542	721.611020189395	37.180429863911	406.813380843580	794.410687221053	35.032238861348	325.029299253847	876.564627854130	98.146686228790	348.288086959575	1004.777404580072	49.037030083903	318.749813773919	524.397108038405	1103.126242518644	221.693644686391	526.274148511542	841.777728711476	209.444651474955	808.184328914576	1088.504375770835	751.277955314815	1048.107337620573	1102.384930077495	671.831143255410	
